<svg xmlns="http://www.w3.org/2000/svg" width="38.773" height="39.284" viewBox="0 0 38.773 39.284"><defs><style>.a{fill:#6761a8;}</style></defs><path class="a" d="M5.857,39.284a.573.573,0,0,1-.558-.443L1.131,20.907a.573.573,0,0,1,.428-.688L3.1,19.862,20.675,5.138l-1.016-.919a2.278,2.278,0,1,1,.795-.826l1.108,1,.256-.214a.573.573,0,0,1,.72-.013L33.6,12.774l1.418-.33a.573.573,0,0,1,.688.429l4.167,17.934a.573.573,0,0,1-.428.688L5.986,39.27A.579.579,0,0,1,5.857,39.284ZM2.377,21.206,6.285,38.024l32.344-7.516L34.72,13.69l-1.118.26-.016,0L3.509,20.943l-.028.007ZM21.533,5.914,5.57,19.288l26.594-6.18L22.9,5.9a.573.573,0,0,1-.956.385ZM18.467,1.146a1.132,1.132,0,1,0,.8,1.933l.018-.019a1.132,1.132,0,0,0-.818-1.914ZM10.085,32.26a.573.573,0,0,1-.557-.442l-1.477-6.3a.573.573,0,0,1,.942-.556,2.142,2.142,0,1,1,1.977,3.625,2.1,2.1,0,0,1-.265.045l2.92,1.811a.573.573,0,0,1-.6.974L10.2,29.665l.443,1.891a.573.573,0,0,1-.427.688A.552.552,0,0,1,10.085,32.26Zm.4-6.756a1.014,1.014,0,0,0-.229.027.992.992,0,1,0,.229-.027Zm5.925,4.975a.573.573,0,0,1-.557-.442l-.68-2.9,0-.008,0-.008-.72-3.07v0a.573.573,0,0,1,.427-.688l3.4-.8a.573.573,0,1,1,.261,1.115l-2.844.667.46,1.963,1.71-.4a.573.573,0,1,1,.262,1.115l-1.71.4.42,1.794,2.844-.666a.573.573,0,1,1,.261,1.115l-3.4.8h0A.572.572,0,0,1,16.408,30.48ZM22.283,29.1a.573.573,0,0,1-.557-.442l-1.4-5.989a.615.615,0,0,1,.986-.6l4.315,3.9-1.01-4.308a.573.573,0,0,1,1.115-.261l1.4,5.989a.615.615,0,0,1-.986.6l-4.315-3.9,1.01,4.308a.573.573,0,0,1-.427.688A.585.585,0,0,1,22.283,29.1ZM31.1,27.037a.573.573,0,0,1-.557-.442l-1.273-5.431-1.588.372a.573.573,0,1,1-.261-1.115l4.291-1.006a.573.573,0,1,1,.261,1.115l-1.588.372,1.273,5.431a.573.573,0,0,1-.427.688A.563.563,0,0,1,31.1,27.037Z" transform="translate(-1.116)"/></svg>