<svg xmlns="http://www.w3.org/2000/svg" width="35.058" height="40.392" viewBox="0 0 35.058 40.392"><defs><style>.a{fill:#6761a8;}</style></defs><g transform="translate(-32.864)"><g transform="translate(32.864)"><g transform="translate(0)"><path class="a" d="M50.393,0l-8.44,5.843V4.036H36.759v5.4l-3.9,2.7V17.61l1.948-1.348V35.2h3.9v5.194H62.079V35.2h3.9V16.261l1.948,1.348V12.135ZM38.058,5.334h2.6V6.742l-2.6,1.8Zm22.723,33.76H40.006V20.916H46.5v-.027a6.45,6.45,0,0,0,1.3.778v.548H41.3V35.2H59.482V22.214H52.99v-.548a6.421,6.421,0,0,0,1.3-.778v.027h6.492ZM48.826,24.811l-1.3,1.3,1.3,1.3-1.03,1.03v1.836l2.6,2.6,2.6-2.6V23.512h5.194V33.9H42.6V23.512H47.8v.269Zm3.3-4.2-.432.153v8.97l-1.3,1.3-1.3-1.3v-.761l1.567-1.567-1.3-1.3,1.3-1.3-1.567-1.567V20.766l-.432-.153a5.195,5.195,0,1,1,3.462,0ZM64.676,33.9h-2.6V19.617H55.56a6.492,6.492,0,1,0-10.334,0H38.707V33.9h-2.6V15.363L50.393,5.474l14.283,9.888Zm1.948-18.768L50.393,3.9,34.162,15.132V12.816L50.393,1.579,66.624,12.816Z" transform="translate(-32.864)"/></g></g><g transform="translate(47.796 11.826)"><path class="a" d="M219.461,145.728a2.6,2.6,0,1,0,2.6,2.6A2.6,2.6,0,0,0,219.461,145.728Zm0,3.9a1.3,1.3,0,1,1,1.3-1.3A1.3,1.3,0,0,1,219.461,149.623Z" transform="translate(-216.864 -145.728)"/></g><g transform="translate(41.304 36.497)"><g transform="translate(0)"><rect class="a" width="15.581" height="1.298"/></g></g><g transform="translate(58.184 36.497)"><g transform="translate(0)"><rect class="a" width="1.298" height="1.298"/></g></g></g></svg>