<svg xmlns="http://www.w3.org/2000/svg" width="47.729" height="44" viewBox="0 0 47.729 44"><defs><style>.a{fill:#6761a8;}</style></defs><g transform="translate(0 -20)"><g transform="translate(22.931 20)"><path class="a" d="M246.919,20a.932.932,0,0,0-.932.932v5.546a.932.932,0,1,0,1.864,0V20.932A.932.932,0,0,0,246.919,20Z" transform="translate(-245.987 -20)"/></g><g transform="translate(14.759 25.458)"><path class="a" d="M162.151,81.051l-2.23-2.228a.932.932,0,1,0-1.318,1.319l2.23,2.228a.932.932,0,1,0,1.318-1.319Z" transform="translate(-158.33 -78.55)"/></g><g transform="translate(28.733 25.46)"><path class="a" d="M312.195,78.846a.932.932,0,0,0-1.318,0l-2.371,2.373a.932.932,0,0,0,1.319,1.318l2.371-2.373A.932.932,0,0,0,312.195,78.846Z" transform="translate(-308.233 -78.573)"/></g><g transform="translate(0 34.007)"><path class="a" d="M41.623,180.856H40.87a4.724,4.724,0,0,0,.98-2.885v-1.316a4.749,4.749,0,1,0-9.5,0v1.023l-7.013-7.013a1.405,1.405,0,0,0-1.475-.328,1.405,1.405,0,0,0-1.475.329l-7.013,7.013v-1.023a4.749,4.749,0,0,0-9.5,0v1.316a4.724,4.724,0,0,0,.98,2.884H6.106A6.113,6.113,0,0,0,0,186.962v12.352a.932.932,0,0,0,.932.932H4.871a.931.931,0,0,0,.268-.04.931.931,0,0,0,.268.04H15.847a.932.932,0,0,0,.932-.932v-3.169a.932.932,0,1,0-1.864,0v2.237H6.339V187.759a.932.932,0,0,0-1.864,0v10.622H1.864V186.962a4.246,4.246,0,0,1,4.242-4.242h6.479a.929.929,0,0,0,.657-.271l0,0,9.683-9.683a10.265,10.265,0,0,1-1.751,5.413l-6.1,9.061a.933.933,0,0,0-.159.521v1.02a.932.932,0,0,0,1.864,0v-.736l5.942-8.825a12.2,12.2,0,0,0,1.143-2.126,12.194,12.194,0,0,0,1.143,2.126l5.942,8.825v11.27a.932.932,0,0,0,.932.932H42.322a.931.931,0,0,0,.268-.04.931.931,0,0,0,.268.04H46.8a.932.932,0,0,0,.932-.932V186.962A6.113,6.113,0,0,0,41.623,180.856Zm-28.111-2.885a2.885,2.885,0,1,1-5.769,0v-1.316a2.885,2.885,0,1,1,5.769,0Zm20.705-1.316a2.885,2.885,0,1,1,5.769,0v1.316a2.885,2.885,0,1,1-5.769,0Zm11.647,21.726h-2.61v-6.9a.932.932,0,1,0-1.864,0v6.9H32.813V187.759a.932.932,0,0,0-.159-.521l-6.1-9.061a10.265,10.265,0,0,1-1.751-5.413l9.683,9.683c.012.012.024.023.035.032a.928.928,0,0,0,.624.241h6.479a4.246,4.246,0,0,1,4.242,4.242v11.419Z" transform="translate(0 -170.252)"/></g><g transform="translate(41.39 50.581)"><path class="a" d="M445.591,348.323a.931.931,0,1,0,.273.659A.939.939,0,0,0,445.591,348.323Z" transform="translate(-444 -348.05)"/></g><g transform="translate(14.915 55.517)"><path class="a" d="M161.591,401.273a.931.931,0,1,0,.273.659A.939.939,0,0,0,161.591,401.273Z" transform="translate(-160 -401)"/></g></g></svg>